<svg xmlns="http://www.w3.org/2000/svg" xmlns:xlink="http://www.w3.org/1999/xlink" width="1235" zoomAndPan="magnify" viewBox="0 0 926.25 253.499997" height="338" preserveAspectRatio="xMidYMid meet" version="1.2"><defs><clipPath id="234d5b48c7"><path d="M 0.539062 0 L 924.964844 0 L 924.964844 253 L 0.539062 253 Z M 0.539062 0 "/></clipPath><clipPath id="4c453cceab"><path d="M 0.539062 123.339844 L 26.679688 123.339844 L 26.679688 213.996094 L 0.539062 213.996094 Z M 0.539062 123.339844 "/></clipPath><clipPath id="219c2c0bba"><path d="M 11.371094 78.5625 L 15.84375 78.5625 L 15.84375 245.179688 L 11.371094 245.179688 Z M 11.371094 78.5625 "/></clipPath><clipPath id="7cd42f0fd5"><path d="M 45.695312 62.171875 L 50.164062 62.171875 L 50.164062 228.792969 L 45.695312 228.792969 Z M 45.695312 62.171875 "/></clipPath><clipPath id="e764c15776"><path d="M 34.859375 72.695312 L 61 72.695312 L 61 213.996094 L 34.859375 213.996094 Z M 34.859375 72.695312 "/></clipPath><clipPath id="0dbd74ac50"><path d="M 68.402344 72.695312 L 94.542969 72.695312 L 94.542969 99.621094 L 68.402344 99.621094 Z M 68.402344 72.695312 "/></clipPath><clipPath id="d302fb51f9"><path d="M 78.75 52.691406 L 83.707031 52.691406 L 83.707031 93.84375 L 78.75 93.84375 Z M 78.75 52.691406 "/></clipPath><clipPath id="d7709aa0c9"><path d="M 102.480469 17.542969 L 128.621094 17.542969 L 128.621094 111.175781 L 102.480469 111.175781 Z M 102.480469 17.542969 "/></clipPath><clipPath id="a2a831ceaf"><path d="M 113.316406 7.820312 L 117.789062 7.820312 L 117.789062 150.308594 L 113.316406 150.308594 Z M 113.316406 7.820312 "/></clipPath></defs><g id="c400128c52"><g clip-rule="nonzero" clip-path="url(#234d5b48c7)"><path style=" stroke:none;fill-rule:nonzero;fill:#ffffff;fill-opacity:1;" d="M 0.539062 0 L 924.964844 0 L 924.964844 253 L 0.539062 253 Z M 0.539062 0 "/><path style=" stroke:none;fill-rule:nonzero;fill:#ffffff;fill-opacity:1;" d="M 0.539062 0 L 924.964844 0 L 924.964844 253 L 0.539062 253 Z M 0.539062 0 "/></g><g clip-rule="nonzero" clip-path="url(#4c453cceab)"><path style=" stroke:none;fill-rule:nonzero;fill:#ff3131;fill-opacity:1;" d="M 0.539062 123.339844 L 26.679688 123.339844 L 26.679688 214.011719 L 0.539062 214.011719 Z M 0.539062 123.339844 "/></g><g clip-rule="nonzero" clip-path="url(#219c2c0bba)"><path style=" stroke:none;fill-rule:nonzero;fill:#ff3131;fill-opacity:1;" d="M 11.371094 78.5625 L 15.84375 78.5625 L 15.84375 245.183594 L 11.371094 245.183594 Z M 11.371094 78.5625 "/></g><g clip-rule="nonzero" clip-path="url(#7cd42f0fd5)"><path style=" stroke:none;fill-rule:nonzero;fill:#00bf63;fill-opacity:1;" d="M 45.695312 62.171875 L 50.164062 62.171875 L 50.164062 228.796875 L 45.695312 228.796875 Z M 45.695312 62.171875 "/></g><g clip-rule="nonzero" clip-path="url(#e764c15776)"><path style=" stroke:none;fill-rule:nonzero;fill:#00bf63;fill-opacity:1;" d="M 34.859375 72.695312 L 61 72.695312 L 61 214.019531 L 34.859375 214.019531 Z M 34.859375 72.695312 "/></g><g clip-rule="nonzero" clip-path="url(#0dbd74ac50)"><path style=" stroke:none;fill-rule:nonzero;fill:#ff3131;fill-opacity:1;" d="M 68.402344 72.695312 L 94.542969 72.695312 L 94.542969 99.652344 L 68.402344 99.652344 Z M 68.402344 72.695312 "/></g><g clip-rule="nonzero" clip-path="url(#d302fb51f9)"><path style=" stroke:none;fill-rule:nonzero;fill:#ff3131;fill-opacity:1;" d="M 78.75 52.691406 L 83.707031 52.691406 L 83.707031 93.84375 L 78.75 93.84375 Z M 78.75 52.691406 "/></g><g clip-rule="nonzero" clip-path="url(#d7709aa0c9)"><path style=" stroke:none;fill-rule:nonzero;fill:#00bf63;fill-opacity:1;" d="M 102.480469 17.542969 L 128.621094 17.542969 L 128.621094 111.179688 L 102.480469 111.179688 Z M 102.480469 17.542969 "/></g><g clip-rule="nonzero" clip-path="url(#a2a831ceaf)"><path style=" stroke:none;fill-rule:nonzero;fill:#00bf63;fill-opacity:1;" d="M 113.316406 7.820312 L 117.789062 7.820312 L 117.789062 150.308594 L 113.316406 150.308594 Z M 113.316406 7.820312 "/></g><g style="fill:#000000;fill-opacity:1;"><g transform="translate(55.066673, 169.170153)"><path style="stroke:none" d="M 50.96875 -79.046875 L 50.96875 -63.234375 L 23.765625 -63.234375 L 23.765625 -47.515625 L 49.828125 -47.515625 L 49.828125 -31.71875 L 23.765625 -31.71875 L 23.765625 -15.8125 L 50.96875 -15.8125 L 50.96875 0 L 5.75 0 L 5.75 -79.046875 Z M 50.96875 -79.046875 "/></g></g><g style="fill:#000000;fill-opacity:1;"><g transform="translate(111.211938, 169.170153)"><path style="stroke:none" d="M 45.890625 -79.046875 L 77.796875 0 L 58.453125 0 L 52.59375 -15.8125 L 22.515625 -15.8125 L 16.671875 0 L -2.6875 0 L 29.21875 -79.046875 Z M 46.46875 -31.625 L 37.65625 -54.609375 L 37.46875 -54.609375 L 28.640625 -31.625 Z M 46.46875 -31.625 "/></g></g><g style="fill:#000000;fill-opacity:1;"><g transform="translate(184.411574, 169.170153)"><path style="stroke:none" d="M 34.875 -80.484375 C 39.15625 -80.484375 43.335938 -79.859375 47.421875 -78.609375 C 51.515625 -77.367188 54.550781 -76.140625 56.53125 -74.921875 L 59.40625 -73.015625 L 52.125 -58.640625 C 51.550781 -59.023438 50.75 -59.519531 49.71875 -60.125 C 48.695312 -60.726562 46.78125 -61.539062 43.96875 -62.5625 C 41.164062 -63.582031 38.550781 -64.09375 36.125 -64.09375 C 33.125 -64.09375 30.804688 -63.453125 29.171875 -62.171875 C 27.546875 -60.898438 26.734375 -59.179688 26.734375 -57.015625 C 26.734375 -55.921875 27.113281 -54.910156 27.875 -53.984375 C 28.644531 -53.054688 29.957031 -52.066406 31.8125 -51.015625 C 33.664062 -49.960938 35.289062 -49.113281 36.6875 -48.46875 C 38.09375 -47.832031 40.269531 -46.878906 43.21875 -45.609375 C 48.320312 -43.429688 52.675781 -40.472656 56.28125 -36.734375 C 59.894531 -33.003906 61.703125 -28.773438 61.703125 -24.046875 C 61.703125 -19.515625 60.882812 -15.554688 59.25 -12.171875 C 57.625 -8.785156 55.390625 -6.132812 52.546875 -4.21875 C 49.710938 -2.300781 46.566406 -0.878906 43.109375 0.046875 C 39.660156 0.972656 35.925781 1.4375 31.90625 1.4375 C 28.457031 1.4375 25.070312 1.082031 21.75 0.375 C 18.425781 -0.320312 15.644531 -1.195312 13.40625 -2.25 C 11.175781 -3.300781 9.164062 -4.335938 7.375 -5.359375 C 5.582031 -6.390625 4.273438 -7.253906 3.453125 -7.953125 L 2.203125 -9 L 11.203125 -24.140625 C 11.972656 -23.503906 13.03125 -22.691406 14.375 -21.703125 C 15.71875 -20.710938 18.097656 -19.382812 21.515625 -17.71875 C 24.929688 -16.0625 27.945312 -15.234375 30.5625 -15.234375 C 38.164062 -15.234375 41.96875 -17.820312 41.96875 -23 C 41.96875 -24.082031 41.695312 -25.085938 41.15625 -26.015625 C 40.613281 -26.941406 39.65625 -27.867188 38.28125 -28.796875 C 36.90625 -29.722656 35.691406 -30.457031 34.640625 -31 C 33.585938 -31.539062 31.863281 -32.367188 29.46875 -33.484375 C 27.070312 -34.597656 25.296875 -35.445312 24.140625 -36.03125 C 19.347656 -38.394531 15.644531 -41.347656 13.03125 -44.890625 C 10.414062 -48.429688 9.109375 -52.25 9.109375 -56.34375 C 9.109375 -63.425781 11.722656 -69.21875 16.953125 -73.71875 C 22.191406 -78.226562 28.164062 -80.484375 34.875 -80.484375 Z M 34.875 -80.484375 "/></g></g><g style="fill:#000000;fill-opacity:1;"><g transform="translate(240.173599, 169.170153)"><path style="stroke:none" d="M -2.875 -79.046875 L 18.78125 -79.046875 L 35.265625 -53.75 L 51.734375 -79.046875 L 73.390625 -79.046875 L 44.265625 -35.453125 L 44.265625 0 L 26.25 0 L 26.25 -35.453125 Z M -2.875 -79.046875 "/></g></g><g style="fill:#1800ad;fill-opacity:1;"><g transform="translate(310.699173, 169.170153)"><path style="stroke:none" d=""/></g><g transform="translate(336.855581, 169.170153)"><path style="stroke:none" d="M 51.453125 -79.046875 L 51.453125 -63.234375 L 23.765625 -63.234375 L 23.765625 -47.515625 L 49.34375 -47.515625 L 49.34375 -31.71875 L 23.765625 -31.71875 L 23.765625 0 L 5.75 0 L 5.75 -79.046875 Z M 51.453125 -79.046875 "/></g></g><g style="fill:#1800ad;fill-opacity:1;"><g transform="translate(391.180443, 169.170153)"><path style="stroke:none" d="M 2.203125 -39.578125 C 2.203125 -51.003906 6.097656 -60.675781 13.890625 -68.59375 C 21.679688 -76.519531 31.070312 -80.484375 42.0625 -80.484375 C 53.113281 -80.484375 62.503906 -76.535156 70.234375 -68.640625 C 77.960938 -60.753906 81.828125 -51.066406 81.828125 -39.578125 C 81.828125 -28.015625 78.023438 -18.285156 70.421875 -10.390625 C 62.816406 -2.503906 53.363281 1.4375 42.0625 1.4375 C 30.5 1.4375 20.960938 -2.472656 13.453125 -10.296875 C 5.953125 -18.117188 2.203125 -27.878906 2.203125 -39.578125 Z M 21.65625 -39.578125 C 21.65625 -35.421875 22.289062 -31.632812 23.5625 -28.21875 C 24.84375 -24.800781 27.078125 -21.910156 30.265625 -19.546875 C 33.460938 -17.179688 37.394531 -16 42.0625 -16 C 48.769531 -16 53.832031 -18.296875 57.25 -22.890625 C 60.664062 -27.492188 62.375 -33.054688 62.375 -39.578125 C 62.375 -46.023438 60.632812 -51.5625 57.15625 -56.1875 C 53.675781 -60.820312 48.644531 -63.140625 42.0625 -63.140625 C 35.539062 -63.140625 30.507812 -60.820312 26.96875 -56.1875 C 23.425781 -51.5625 21.65625 -46.023438 21.65625 -39.578125 Z M 21.65625 -39.578125 "/></g></g><g style="fill:#1800ad;fill-opacity:1;"><g transform="translate(475.206716, 169.170153)"><path style="stroke:none" d="M 5.75 -79.046875 L 34.015625 -79.046875 C 41.617188 -79.046875 47.8125 -77.015625 52.59375 -72.953125 C 57.382812 -68.898438 59.78125 -63.109375 59.78125 -55.578125 C 59.78125 -49.765625 58.328125 -44.890625 55.421875 -40.953125 C 52.515625 -37.023438 48.570312 -34.265625 43.59375 -32.671875 L 70.8125 0 L 47.90625 0 L 23.765625 -31.234375 L 23.765625 0 L 5.75 0 Z M 23.765625 -43.984375 L 25.875 -43.984375 C 27.53125 -43.984375 28.929688 -44.015625 30.078125 -44.078125 C 31.234375 -44.140625 32.546875 -44.359375 34.015625 -44.734375 C 35.484375 -45.117188 36.664062 -45.660156 37.5625 -46.359375 C 38.457031 -47.066406 39.222656 -48.09375 39.859375 -49.4375 C 40.492188 -50.78125 40.8125 -52.410156 40.8125 -54.328125 C 40.8125 -56.242188 40.492188 -57.867188 39.859375 -59.203125 C 39.222656 -60.546875 38.457031 -61.566406 37.5625 -62.265625 C 36.664062 -62.972656 35.484375 -63.519531 34.015625 -63.90625 C 32.546875 -64.289062 31.234375 -64.515625 30.078125 -64.578125 C 28.929688 -64.640625 27.53125 -64.671875 25.875 -64.671875 L 23.765625 -64.671875 Z M 23.765625 -43.984375 "/></g></g><g style="fill:#1800ad;fill-opacity:1;"><g transform="translate(543.807412, 169.170153)"><path style="stroke:none" d="M 50.96875 -79.046875 L 50.96875 -63.234375 L 23.765625 -63.234375 L 23.765625 -47.515625 L 49.828125 -47.515625 L 49.828125 -31.71875 L 23.765625 -31.71875 L 23.765625 -15.8125 L 50.96875 -15.8125 L 50.96875 0 L 5.75 0 L 5.75 -79.046875 Z M 50.96875 -79.046875 "/></g></g><g style="fill:#1800ad;fill-opacity:1;"><g transform="translate(599.377819, 169.170153)"><path style="stroke:none" d="M 79.71875 0 L 56.4375 0 L 37.75 -26.921875 L 19.0625 0 L -3.25 0 L 26.640625 -42.546875 L 1.71875 -79.046875 L 23.1875 -79.046875 L 37.75 -57.484375 L 52.3125 -79.046875 L 74.734375 -79.046875 L 48.859375 -42.546875 Z M 79.71875 0 "/></g></g><g style="fill:#000000;fill-opacity:1;"><g transform="translate(675.838333, 169.170153)"><path style="stroke:none" d=""/></g><g transform="translate(701.994741, 169.170153)"><path style="stroke:none" d="M 45.890625 -79.046875 L 77.796875 0 L 58.453125 0 L 52.59375 -15.8125 L 22.515625 -15.8125 L 16.671875 0 L -2.6875 0 L 29.21875 -79.046875 Z M 46.46875 -31.625 L 37.65625 -54.609375 L 37.46875 -54.609375 L 28.640625 -31.625 Z M 46.46875 -31.625 "/></g></g><g style="fill:#000000;fill-opacity:1;"><g transform="translate(777.110595, 169.170153)"><path style="stroke:none" d="M 5.75 -79.046875 L 34.59375 -79.046875 C 42.632812 -79.046875 49.144531 -76.96875 54.125 -72.8125 C 59.113281 -68.664062 61.609375 -62.628906 61.609375 -54.703125 C 61.609375 -46.785156 59.082031 -40.570312 54.03125 -36.0625 C 48.988281 -31.5625 42.507812 -29.3125 34.59375 -29.3125 L 23.765625 -29.3125 L 23.765625 0 L 5.75 0 Z M 23.765625 -43.6875 L 28.84375 -43.6875 C 32.863281 -43.6875 36.164062 -44.5 38.75 -46.125 C 41.34375 -47.757812 42.640625 -50.429688 42.640625 -54.140625 C 42.640625 -57.898438 41.34375 -60.59375 38.75 -62.21875 C 36.164062 -63.851562 32.863281 -64.671875 28.84375 -64.671875 L 23.765625 -64.671875 Z M 23.765625 -43.6875 "/></g></g><g style="fill:#000000;fill-opacity:1;"><g transform="translate(840.920746, 169.170153)"><path style="stroke:none" d="M 23.765625 -79.046875 L 23.765625 0 L 5.75 0 L 5.75 -79.046875 Z M 23.765625 -79.046875 "/></g></g></g></svg>